<svg width="19" height="24" viewBox="0 0 19 24" fill="none" xmlns="http://www.w3.org/2000/svg">
<path d="M2.28571 24C1.65714 24 1.11924 23.7764 0.672 23.3291C0.224762 22.8819 0.000761905 22.3436 0 21.7143V10.2857C0 9.65714 0.224 9.11924 0.672 8.672C1.12 8.22476 1.6579 8.00076 2.28571 8H3.42857V5.71429C3.42857 4.13333 3.9859 2.78591 5.10057 1.672C6.21524 0.558096 7.56267 0.000762685 9.14286 7.80107e-07C10.723 -0.000761125 12.0709 0.556572 13.1863 1.672C14.3017 2.78743 14.8587 4.13486 14.8571 5.71429V8H16C16.6286 8 17.1669 8.224 17.6149 8.672C18.0629 9.12 18.2865 9.65791 18.2857 10.2857V21.7143C18.2857 22.3429 18.0621 22.8811 17.6149 23.3291C17.1676 23.7771 16.6293 24.0008 16 24H2.28571ZM9.14286 18.2857C9.77143 18.2857 10.3097 18.0621 10.7577 17.6149C11.2057 17.1676 11.4293 16.6293 11.4286 16C11.4278 15.3707 11.2042 14.8328 10.7577 14.3863C10.3112 13.9398 9.77295 13.7158 9.14286 13.7143C8.51276 13.7128 7.97486 13.9368 7.52914 14.3863C7.08343 14.8358 6.85943 15.3737 6.85714 16C6.85486 16.6263 7.07886 17.1646 7.52914 17.6149C7.97943 18.0651 8.51733 18.2888 9.14286 18.2857ZM5.71429 8H12.5714V5.71429C12.5714 4.76191 12.2381 3.95238 11.5714 3.28571C10.9048 2.61905 10.0952 2.28571 9.14286 2.28571C8.19048 2.28571 7.38095 2.61905 6.71429 3.28571C6.04762 3.95238 5.71429 4.76191 5.71429 5.71429V8Z" fill="#222222"/>
</svg>
