<svg width="190" height="75" viewBox="0 0 190 75" fill="none" xmlns="http://www.w3.org/2000/svg">
<g clip-path="url(#clip0_1_3)">
<path d="M41.7488 25.266L42.2393 30.2925C43.3071 41.232 40.3644 52.1856 34.0815 60.6747C32.219 63.1949 29.4376 64.654 26.5073 64.654C24.4027 64.654 22.7326 62.6783 22.8568 60.3466L24.4461 30.4251L41.7488 25.266Z" fill="#167A9D"/>
<path d="M0.705308 25.266L0.214846 30.2925C-0.852993 41.232 2.08977 52.1856 8.37264 60.6747C10.2352 63.1949 13.0165 64.654 15.9469 64.654C18.0515 64.654 19.7215 62.6783 19.5974 60.3466L18.008 30.4251L0.705308 25.266Z" fill="#167A9D"/>
<path d="M41.6371 24.2886C40.7307 17.8659 36.1986 12.972 30.4061 12.1273C28.2332 11.8132 26.1472 12.0924 24.2599 12.8324C23.906 12.972 23.5459 13.0837 23.1796 13.1745C22.7574 13.2792 22.6954 13.9215 23.0989 14.103C24.6882 14.8081 26.3893 15.1711 28.1153 15.1711H28.5436C28.8975 15.1711 29.1831 15.4853 29.1831 15.8832C29.1831 16.2811 28.8975 16.5953 28.5436 16.5953H28.1153C25.3401 16.5953 22.6209 15.7296 20.2679 14.096L20.0258 13.9285L20.0071 13.9145C18.9952 13.2164 17.8963 12.6718 16.7353 12.3717C15.2019 11.9807 13.5753 11.89 11.899 12.1483C5.8148 13.1047 1.2206 18.5291 0.686684 25.3428C0.314181 30.069 1.97182 34.3625 4.778 37.3155H4.75937L18.4364 52.5276C19.9761 54.238 22.4656 54.238 23.9991 52.5276L37.1733 37.8252H37.1609C40.4885 34.6697 42.4007 29.713 41.6371 24.3026V24.2886Z" fill="#38BCEA"/>
<path d="M12.8799 28.3936C18.0391 31.5002 24.2537 31.5002 29.4128 28.3936" stroke="#FEFEFE" stroke-width="6" stroke-linecap="round" stroke-linejoin="round"/>
<path d="M11.0422 29.5804C12.2156 28.8613 12.9793 27.5279 13.0786 26.0409" stroke="white" stroke-width="6" stroke-linecap="round" stroke-linejoin="round"/>
<path d="M31.2443 29.5804C30.0709 28.8613 29.3073 27.5279 29.2079 26.0409" stroke="white" stroke-width="6" stroke-linecap="round" stroke-linejoin="round"/>
<path d="M67.6 31.088C67.6 30.368 67.784 29.752 68.152 29.24C68.52 28.712 69.008 28.28 69.616 27.944C70.24 27.608 70.944 27.36 71.728 27.2C72.528 27.04 73.344 26.96 74.176 26.96C75.056 26.96 75.864 27.048 76.6 27.224C77.352 27.384 78 27.632 78.544 27.968C79.104 28.288 79.544 28.68 79.864 29.144C80.2 29.592 80.392 30.104 80.44 30.68C80.472 31.064 80.44 31.392 80.344 31.664C80.248 31.936 80.104 32.16 79.912 32.336C79.736 32.512 79.52 32.648 79.264 32.744C79.008 32.824 78.736 32.864 78.448 32.864C77.648 32.864 77.04 32.64 76.624 32.192C76.208 31.744 75.96 31.104 75.88 30.272C75.848 29.808 75.72 29.424 75.496 29.12C75.272 28.8 74.88 28.64 74.32 28.64C74.08 28.64 73.856 28.696 73.648 28.808C73.456 28.904 73.288 29.048 73.144 29.24C73.016 29.432 72.936 29.656 72.904 29.912C72.888 30.168 72.944 30.44 73.072 30.728C73.328 31.288 73.688 31.824 74.152 32.336C74.632 32.832 75.152 33.32 75.712 33.8C76.272 34.264 76.848 34.736 77.44 35.216C78.032 35.696 78.568 36.208 79.048 36.752C79.544 37.28 79.944 37.856 80.248 38.48C80.552 39.088 80.704 39.768 80.704 40.52C80.704 41.144 80.528 41.696 80.176 42.176C79.84 42.64 79.384 43.024 78.808 43.328C78.248 43.632 77.592 43.856 76.84 44C76.104 44.16 75.336 44.24 74.536 44.24C72.504 44.24 70.888 43.952 69.688 43.376C68.504 42.784 67.856 41.912 67.744 40.76C67.712 40.376 67.744 40.048 67.84 39.776C67.936 39.504 68.08 39.28 68.272 39.104C68.464 38.928 68.688 38.8 68.944 38.72C69.2 38.624 69.472 38.576 69.76 38.576C70.544 38.576 71.136 38.808 71.536 39.272C71.936 39.72 72.192 40.352 72.304 41.168C72.336 41.456 72.48 41.76 72.736 42.08C72.992 42.4 73.392 42.56 73.936 42.56C74.112 42.56 74.288 42.52 74.464 42.44C74.656 42.36 74.816 42.248 74.944 42.104C75.072 41.944 75.152 41.752 75.184 41.528C75.232 41.288 75.208 41.016 75.112 40.712C74.904 40.072 74.576 39.496 74.128 38.984C73.68 38.472 73.176 37.984 72.616 37.52C72.056 37.056 71.48 36.608 70.888 36.176C70.296 35.728 69.752 35.256 69.256 34.76C68.776 34.264 68.376 33.72 68.056 33.128C67.752 32.536 67.6 31.856 67.6 31.088ZM81.9443 44C82.1683 43.712 82.3683 43.336 82.5443 42.872C82.7203 42.392 82.8083 41.688 82.8083 40.76V37.208C82.8083 36.776 82.8003 36.376 82.7843 36.008C82.7843 35.624 82.7603 35.264 82.7123 34.928C82.6643 34.576 82.5763 34.24 82.4483 33.92C82.3363 33.6 82.1683 33.296 81.9443 33.008C83.0963 33.04 84.1043 32.968 84.9683 32.792C85.8323 32.616 86.6723 32.352 87.4883 32V32.72C87.8083 32.448 88.2003 32.224 88.6643 32.048C89.1443 31.856 89.7043 31.76 90.3443 31.76C90.6483 31.76 91.0003 31.792 91.4003 31.856C91.8003 31.92 92.2003 32.032 92.6003 32.192C93.0163 32.352 93.4003 32.56 93.7523 32.816C94.1203 33.056 94.4083 33.36 94.6163 33.728C94.7443 33.536 94.9123 33.328 95.1203 33.104C95.3443 32.864 95.6083 32.648 95.9123 32.456C96.2323 32.248 96.5923 32.08 96.9923 31.952C97.4083 31.824 97.8803 31.76 98.4083 31.76C98.9203 31.76 99.4723 31.864 100.064 32.072C100.672 32.264 101.24 32.608 101.768 33.104C102.296 33.584 102.736 34.24 103.088 35.072C103.44 35.888 103.616 36.928 103.616 38.192V40.76C103.616 41.688 103.704 42.392 103.88 42.872C104.056 43.336 104.256 43.712 104.48 44H98.0723C98.2963 43.712 98.4963 43.336 98.6723 42.872C98.8483 42.392 98.9363 41.688 98.9363 40.76V38.912C98.9363 37.776 98.8803 36.872 98.7683 36.2C98.6723 35.528 98.5363 35.016 98.3603 34.664C98.1843 34.296 97.9843 34.056 97.7603 33.944C97.5363 33.832 97.3043 33.776 97.0643 33.776C96.7283 33.776 96.4483 33.856 96.2243 34.016C96.0003 34.16 95.8163 34.336 95.6723 34.544C95.5443 34.752 95.4483 34.968 95.3843 35.192C95.3363 35.4 95.3123 35.568 95.3123 35.696C95.3443 36.176 95.3683 36.616 95.3843 37.016C95.4163 37.4 95.4403 37.784 95.4563 38.168C95.4883 38.552 95.5123 38.952 95.5283 39.368C95.5443 39.784 95.5523 40.248 95.5523 40.76C95.5523 41.688 95.6403 42.392 95.8163 42.872C95.9923 43.336 96.1923 43.712 96.4163 44H90.0083C90.2323 43.712 90.4323 43.336 90.6083 42.872C90.7843 42.392 90.8723 41.688 90.8723 40.76V38.912C90.8723 37.776 90.8163 36.872 90.7043 36.2C90.6083 35.528 90.4723 35.016 90.2963 34.664C90.1203 34.296 89.9203 34.056 89.6963 33.944C89.4723 33.832 89.2403 33.776 89.0003 33.776C88.6323 33.776 88.3443 33.848 88.1363 33.992C87.9283 34.136 87.7763 34.296 87.6803 34.472C87.5683 34.68 87.5043 34.92 87.4883 35.192V40.76C87.4883 41.688 87.5763 42.392 87.7523 42.872C87.9283 43.336 88.1283 43.712 88.3523 44H81.9443ZM105.974 29C105.974 28.392 106.206 27.904 106.67 27.536C107.134 27.152 107.758 26.96 108.542 26.96C109.31 26.96 109.926 27.152 110.39 27.536C110.854 27.904 111.086 28.392 111.086 29C111.086 29.64 110.854 30.152 110.39 30.536C109.926 30.904 109.31 31.088 108.542 31.088C107.758 31.088 107.134 30.904 106.67 30.536C106.206 30.152 105.974 29.64 105.974 29ZM105.71 44C105.934 43.712 106.134 43.336 106.31 42.872C106.486 42.392 106.574 41.688 106.574 40.76V37.184C106.574 36.336 106.534 35.576 106.454 34.904C106.39 34.216 106.134 33.576 105.686 32.984C106.854 33.032 107.87 32.968 108.734 32.792C109.598 32.616 110.438 32.352 111.254 32V40.76C111.254 41.688 111.334 42.392 111.494 42.872C111.67 43.336 111.878 43.712 112.118 44H105.71ZM113.351 44C113.575 43.712 113.775 43.336 113.951 42.872C114.127 42.392 114.215 41.688 114.215 40.76V31.184C114.215 30.768 114.207 30.376 114.191 30.008C114.191 29.624 114.167 29.256 114.119 28.904C114.071 28.552 113.983 28.224 113.855 27.92C113.743 27.6 113.575 27.288 113.351 26.984C114.503 27.032 115.511 26.968 116.375 26.792C117.239 26.616 118.079 26.352 118.895 26V40.76C118.895 41.688 118.983 42.392 119.159 42.872C119.335 43.336 119.535 43.712 119.759 44H113.351ZM132.919 41.048C132.743 41.64 132.455 42.168 132.055 42.632C131.687 43.032 131.183 43.4 130.543 43.736C129.903 44.056 129.039 44.216 127.951 44.216C126.991 44.216 126.087 44.072 125.239 43.784C124.407 43.496 123.679 43.088 123.055 42.56C122.431 42.016 121.935 41.36 121.567 40.592C121.199 39.824 121.015 38.96 121.015 38C121.015 37.056 121.167 36.2 121.471 35.432C121.791 34.664 122.247 34.008 122.839 33.464C123.447 32.92 124.183 32.504 125.047 32.216C125.927 31.928 126.927 31.784 128.047 31.784C129.615 31.784 130.839 32.072 131.719 32.648C132.615 33.208 133.063 34.136 133.063 35.432C133.063 36.264 132.847 36.952 132.415 37.496C131.999 38.04 131.455 38.472 130.783 38.792C130.127 39.112 129.399 39.344 128.599 39.488C127.815 39.616 127.047 39.696 126.295 39.728C126.519 40.688 126.903 41.408 127.447 41.888C128.007 42.352 128.623 42.584 129.295 42.584C129.759 42.584 130.167 42.488 130.519 42.296C130.871 42.088 131.159 41.864 131.383 41.624C131.639 41.336 131.863 41.016 132.055 40.664L132.919 41.048ZM129.511 34.4C129.511 33.6 129.215 33.2 128.623 33.2C128.367 33.2 128.095 33.304 127.807 33.512C127.519 33.72 127.247 34.032 126.991 34.448C126.751 34.848 126.543 35.352 126.367 35.96C126.207 36.552 126.127 37.24 126.127 38.024C126.447 37.864 126.799 37.664 127.183 37.424C127.583 37.184 127.951 36.912 128.287 36.608C128.639 36.288 128.927 35.944 129.151 35.576C129.391 35.208 129.511 34.816 129.511 34.4ZM146.328 44C146.552 43.712 146.752 43.336 146.928 42.872C147.104 42.392 147.192 41.688 147.192 40.76V33.032L144.312 44H140.712C140.632 43.712 140.536 43.392 140.424 43.04C140.344 42.752 140.248 42.416 140.136 42.032C140.024 41.632 139.904 41.208 139.776 40.76L136.896 30.44C136.864 30.312 136.832 30.208 136.8 30.128V30.44V40.76C136.8 41.688 136.888 42.392 137.064 42.872C137.24 43.336 137.44 43.712 137.664 44H134.304C134.528 43.712 134.728 43.336 134.904 42.872C135.08 42.392 135.168 41.688 135.168 40.76V30.44C135.168 29.512 135.08 28.816 134.904 28.352C134.728 27.872 134.528 27.488 134.304 27.2H141.72C141.496 27.488 141.352 27.88 141.288 28.376C141.224 28.856 141.32 29.544 141.576 30.44L144 39.152L146.256 30.44C146.464 29.624 146.592 28.976 146.64 28.496C146.688 28.016 146.624 27.632 146.448 27.344C146.416 27.312 146.392 27.288 146.376 27.272C146.376 27.256 146.36 27.232 146.328 27.2H152.736C152.512 27.472 152.312 27.848 152.136 28.328C151.96 28.808 151.872 29.512 151.872 30.44V40.76C151.872 41.688 151.96 42.392 152.136 42.872C152.312 43.336 152.512 43.712 152.736 44H146.328ZM153.991 41C153.991 40.408 154.151 39.888 154.471 39.44C154.791 38.976 155.199 38.56 155.695 38.192C156.207 37.808 156.775 37.464 157.399 37.16C158.023 36.856 158.639 36.568 159.247 36.296C159.855 36.024 160.423 35.76 160.951 35.504C161.479 35.232 161.895 34.944 162.199 34.64C162.119 34.176 161.983 33.792 161.791 33.488C161.599 33.184 161.311 33.032 160.927 33.032C160.511 33.032 160.183 33.104 159.943 33.248C159.703 33.376 159.495 33.552 159.319 33.776C159.159 33.984 159.023 34.216 158.911 34.472C158.799 34.712 158.655 34.952 158.479 35.192C158.319 35.432 158.119 35.648 157.879 35.84C157.639 36.032 157.311 36.168 156.895 36.248C156.607 36.296 156.311 36.304 156.007 36.272C155.719 36.24 155.447 36.16 155.191 36.032C154.935 35.888 154.727 35.688 154.567 35.432C154.407 35.16 154.327 34.824 154.327 34.424C154.327 33.848 154.527 33.392 154.927 33.056C155.327 32.704 155.847 32.44 156.487 32.264C157.143 32.072 157.871 31.944 158.671 31.88C159.471 31.816 160.271 31.784 161.071 31.784C161.791 31.784 162.503 31.848 163.207 31.976C163.911 32.088 164.543 32.288 165.103 32.576C165.679 32.864 166.135 33.256 166.471 33.752C166.823 34.232 166.999 34.848 166.999 35.6V40.76C166.999 41.688 167.087 42.392 167.263 42.872C167.439 43.336 167.639 43.712 167.863 44H162.319V43.472C161.951 43.68 161.479 43.856 160.903 44C160.327 44.16 159.623 44.24 158.791 44.24C158.263 44.24 157.711 44.2 157.135 44.12C156.575 44.056 156.063 43.912 155.599 43.688C155.135 43.448 154.751 43.12 154.447 42.704C154.143 42.272 153.991 41.704 153.991 41ZM162.319 41.552V36.632C162.319 36.536 162.319 36.44 162.319 36.344C162.319 36.248 162.311 36.144 162.295 36.032C161.943 36.48 161.599 36.912 161.263 37.328C160.943 37.728 160.655 38.128 160.399 38.528C160.143 38.928 159.935 39.336 159.775 39.752C159.631 40.152 159.559 40.568 159.559 41C159.559 41.208 159.583 41.424 159.631 41.648C159.679 41.856 159.751 42.048 159.847 42.224C159.943 42.384 160.071 42.52 160.231 42.632C160.391 42.728 160.583 42.776 160.807 42.776C161.127 42.776 161.383 42.728 161.575 42.632C161.767 42.536 161.911 42.424 162.007 42.296C162.119 42.152 162.191 42.016 162.223 41.888C162.271 41.744 162.303 41.632 162.319 41.552ZM169.427 44C169.651 43.712 169.851 43.336 170.027 42.872C170.203 42.392 170.291 41.688 170.291 40.76V34.184V33.344H168.827V32H170.291C170.435 31.984 170.707 31.896 171.107 31.736C171.523 31.56 171.971 31.352 172.451 31.112C172.931 30.872 173.403 30.608 173.867 30.32C174.331 30.032 174.699 29.768 174.971 29.528V32H176.339V33.344H174.971V40.76C174.971 41.688 175.051 42.392 175.211 42.872C175.387 43.336 175.595 43.712 175.835 44H169.427ZM189.028 41.048C188.852 41.64 188.564 42.168 188.164 42.632C187.796 43.032 187.292 43.4 186.652 43.736C186.012 44.056 185.148 44.216 184.06 44.216C183.1 44.216 182.196 44.072 181.348 43.784C180.516 43.496 179.788 43.088 179.164 42.56C178.54 42.016 178.044 41.36 177.676 40.592C177.308 39.824 177.124 38.96 177.124 38C177.124 37.056 177.276 36.2 177.58 35.432C177.9 34.664 178.356 34.008 178.948 33.464C179.556 32.92 180.292 32.504 181.156 32.216C182.036 31.928 183.036 31.784 184.156 31.784C185.724 31.784 186.948 32.072 187.828 32.648C188.724 33.208 189.172 34.136 189.172 35.432C189.172 36.264 188.956 36.952 188.524 37.496C188.108 38.04 187.564 38.472 186.892 38.792C186.236 39.112 185.508 39.344 184.708 39.488C183.924 39.616 183.156 39.696 182.404 39.728C182.628 40.688 183.012 41.408 183.556 41.888C184.116 42.352 184.732 42.584 185.404 42.584C185.868 42.584 186.276 42.488 186.628 42.296C186.98 42.088 187.268 41.864 187.492 41.624C187.748 41.336 187.972 41.016 188.164 40.664L189.028 41.048ZM185.62 34.4C185.62 33.6 185.324 33.2 184.732 33.2C184.476 33.2 184.204 33.304 183.916 33.512C183.628 33.72 183.356 34.032 183.1 34.448C182.86 34.848 182.652 35.352 182.476 35.96C182.316 36.552 182.236 37.24 182.236 38.024C182.556 37.864 182.908 37.664 183.292 37.424C183.692 37.184 184.06 36.912 184.396 36.608C184.748 36.288 185.036 35.944 185.26 35.576C185.5 35.208 185.62 34.816 185.62 34.4Z" fill="#38BCEA"/>
</g>
<defs>
<clipPath id="clip0_1_3">
<rect width="190" height="75" fill="white"/>
</clipPath>
</defs>
</svg>
